<mxfile host="app.diagrams.net" agent="Mozilla/5.0 (Windows NT 10.0; Win64; x64) AppleWebKit/537.36 (KHTML, like Gecko) Chrome/127.0.0.0 Safari/537.36 Edg/127.0.0.0" version="24.7.5">
  <diagram name="Strona-1" id="-e7Tk63qo5gSYC53ynmE">
    <mxGraphModel dx="1050" dy="611" grid="1" gridSize="10" guides="1" tooltips="1" connect="1" arrows="1" fold="1" page="1" pageScale="1" pageWidth="827" pageHeight="1169" math="0" shadow="0">
      <root>
        <mxCell id="0" />
        <mxCell id="1" parent="0" />
        <mxCell id="EbLAYnd13Gkp5mryDf4b-6" style="rounded=0;orthogonalLoop=1;jettySize=auto;html=1;entryX=0;entryY=0.5;entryDx=0;entryDy=0;" edge="1" parent="1" source="EbLAYnd13Gkp5mryDf4b-1" target="EbLAYnd13Gkp5mryDf4b-2">
          <mxGeometry relative="1" as="geometry" />
        </mxCell>
        <mxCell id="EbLAYnd13Gkp5mryDf4b-7" style="rounded=0;orthogonalLoop=1;jettySize=auto;html=1;entryX=0;entryY=0.5;entryDx=0;entryDy=0;" edge="1" parent="1" source="EbLAYnd13Gkp5mryDf4b-1" target="EbLAYnd13Gkp5mryDf4b-3">
          <mxGeometry relative="1" as="geometry" />
        </mxCell>
        <mxCell id="EbLAYnd13Gkp5mryDf4b-13" style="rounded=0;orthogonalLoop=1;jettySize=auto;html=1;entryX=0;entryY=0;entryDx=0;entryDy=0;" edge="1" parent="1" source="EbLAYnd13Gkp5mryDf4b-1" target="EbLAYnd13Gkp5mryDf4b-11">
          <mxGeometry relative="1" as="geometry" />
        </mxCell>
        <mxCell id="EbLAYnd13Gkp5mryDf4b-1" value="User" style="shape=umlActor;verticalLabelPosition=bottom;verticalAlign=top;html=1;outlineConnect=0;" vertex="1" parent="1">
          <mxGeometry x="60" y="80" width="30" height="60" as="geometry" />
        </mxCell>
        <mxCell id="EbLAYnd13Gkp5mryDf4b-8" value="" style="rounded=0;orthogonalLoop=1;jettySize=auto;html=1;" edge="1" parent="1" source="EbLAYnd13Gkp5mryDf4b-2" target="EbLAYnd13Gkp5mryDf4b-4">
          <mxGeometry relative="1" as="geometry">
            <mxPoint x="580" y="70" as="targetPoint" />
          </mxGeometry>
        </mxCell>
        <mxCell id="EbLAYnd13Gkp5mryDf4b-2" value="Push &quot;Generate!&quot;" style="ellipse;whiteSpace=wrap;html=1;" vertex="1" parent="1">
          <mxGeometry x="200" y="30" width="120" height="80" as="geometry" />
        </mxCell>
        <mxCell id="EbLAYnd13Gkp5mryDf4b-3" value="Choose type of &quot;advice&quot;" style="ellipse;whiteSpace=wrap;html=1;" vertex="1" parent="1">
          <mxGeometry x="200" y="150" width="120" height="80" as="geometry" />
        </mxCell>
        <mxCell id="EbLAYnd13Gkp5mryDf4b-12" style="rounded=0;orthogonalLoop=1;jettySize=auto;html=1;entryX=1;entryY=0.5;entryDx=0;entryDy=0;" edge="1" parent="1" source="EbLAYnd13Gkp5mryDf4b-4" target="EbLAYnd13Gkp5mryDf4b-10">
          <mxGeometry relative="1" as="geometry">
            <mxPoint x="590" y="180" as="sourcePoint" />
          </mxGeometry>
        </mxCell>
        <mxCell id="EbLAYnd13Gkp5mryDf4b-4" value="Application" style="shape=umlActor;verticalLabelPosition=bottom;verticalAlign=top;html=1;outlineConnect=0;" vertex="1" parent="1">
          <mxGeometry x="610" y="100" width="30" height="60" as="geometry" />
        </mxCell>
        <mxCell id="EbLAYnd13Gkp5mryDf4b-9" style="rounded=0;orthogonalLoop=1;jettySize=auto;html=1;" edge="1" parent="1" source="EbLAYnd13Gkp5mryDf4b-3" target="EbLAYnd13Gkp5mryDf4b-4">
          <mxGeometry relative="1" as="geometry" />
        </mxCell>
        <mxCell id="EbLAYnd13Gkp5mryDf4b-10" value="Display the &quot;advice&quot;" style="ellipse;whiteSpace=wrap;html=1;" vertex="1" parent="1">
          <mxGeometry x="380" y="270" width="120" height="80" as="geometry" />
        </mxCell>
        <mxCell id="EbLAYnd13Gkp5mryDf4b-14" style="rounded=0;orthogonalLoop=1;jettySize=auto;html=1;entryX=0;entryY=0.5;entryDx=0;entryDy=0;endArrow=none;endFill=0;" edge="1" parent="1" source="EbLAYnd13Gkp5mryDf4b-11" target="EbLAYnd13Gkp5mryDf4b-10">
          <mxGeometry relative="1" as="geometry" />
        </mxCell>
        <mxCell id="EbLAYnd13Gkp5mryDf4b-11" value="Read the &quot;advice&quot;" style="ellipse;whiteSpace=wrap;html=1;" vertex="1" parent="1">
          <mxGeometry x="200" y="270" width="120" height="80" as="geometry" />
        </mxCell>
      </root>
    </mxGraphModel>
  </diagram>
</mxfile>
